<svg id="visual" viewBox="0 0 960 540" width="960" height="540" xmlns="http://www.w3.org/2000/svg" xmlns:xlink="http://www.w3.org/1999/xlink" version="1.1"><rect x="0" y="0" width="960" height="540" fill="#FFFFFF"></rect><path d="M0 416L22.8 414.5C45.7 413 91.3 410 137 403.7C182.7 397.3 228.3 387.7 274 389C319.7 390.3 365.3 402.7 411.2 411.3C457 420 503 425 548.8 419C594.7 413 640.3 396 686 393C731.7 390 777.3 401 823 403.5C868.7 406 914.3 400 937.2 397L960 394L960 541L937.2 541C914.3 541 868.7 541 823 541C777.3 541 731.7 541 686 541C640.3 541 594.7 541 548.8 541C503 541 457 541 411.2 541C365.3 541 319.7 541 274 541C228.3 541 182.7 541 137 541C91.3 541 45.7 541 22.8 541L0 541Z" fill="#afe5fc"></path><path d="M0 425L22.8 423.5C45.7 422 91.3 419 137 420.7C182.7 422.3 228.3 428.7 274 435C319.7 441.3 365.3 447.7 411.2 450.7C457 453.7 503 453.3 548.8 446.7C594.7 440 640.3 427 686 421C731.7 415 777.3 416 823 422.2C868.7 428.3 914.3 439.7 937.2 445.3L960 451L960 541L937.2 541C914.3 541 868.7 541 823 541C777.3 541 731.7 541 686 541C640.3 541 594.7 541 548.8 541C503 541 457 541 411.2 541C365.3 541 319.7 541 274 541C228.3 541 182.7 541 137 541C91.3 541 45.7 541 22.8 541L0 541Z" fill="#a2e0fb"></path><path d="M0 448L22.8 451.7C45.7 455.3 91.3 462.7 137 462.5C182.7 462.3 228.3 454.7 274 452.7C319.7 450.7 365.3 454.3 411.2 461.2C457 468 503 478 548.8 482C594.7 486 640.3 484 686 481.5C731.7 479 777.3 476 823 468.7C868.7 461.3 914.3 449.7 937.2 443.8L960 438L960 541L937.2 541C914.3 541 868.7 541 823 541C777.3 541 731.7 541 686 541C640.3 541 594.7 541 548.8 541C503 541 457 541 411.2 541C365.3 541 319.7 541 274 541C228.3 541 182.7 541 137 541C91.3 541 45.7 541 22.8 541L0 541Z" fill="#95dcfb"></path><path d="M0 502L22.8 502.2C45.7 502.3 91.3 502.7 137 502.3C182.7 502 228.3 501 274 498.3C319.7 495.7 365.3 491.3 411.2 492C457 492.7 503 498.3 548.8 500.2C594.7 502 640.3 500 686 498.8C731.7 497.7 777.3 497.3 823 496.3C868.7 495.3 914.3 493.7 937.2 492.8L960 492L960 541L937.2 541C914.3 541 868.7 541 823 541C777.3 541 731.7 541 686 541C640.3 541 594.7 541 548.8 541C503 541 457 541 411.2 541C365.3 541 319.7 541 274 541C228.3 541 182.7 541 137 541C91.3 541 45.7 541 22.8 541L0 541Z" fill="#88d7fb"></path></svg>